<svg width="100" height="100" viewBox="0 0 100 100" fill="none" xmlns="http://www.w3.org/2000/svg">
<path d="M75.0001 41.6667H58.3334V25C58.3334 22.7899 57.4554 20.6703 55.8926 19.1074C54.3298 17.5446 52.2102 16.6667 50.0001 16.6667C47.7899 16.6667 45.6703 17.5446 44.1075 19.1074C42.5447 20.6703 41.6667 22.7899 41.6667 25L41.9626 41.6667H25.0001C22.7899 41.6667 20.6703 42.5446 19.1075 44.1074C17.5447 45.6703 16.6667 47.7899 16.6667 50C16.6667 52.2101 17.5447 54.3298 19.1075 55.8926C20.6703 57.4554 22.7899 58.3333 25.0001 58.3333L41.9626 58.0375L41.6667 75C41.6667 77.2101 42.5447 79.3298 44.1075 80.8926C45.6703 82.4554 47.7899 83.3333 50.0001 83.3333C52.2102 83.3333 54.3298 82.4554 55.8926 80.8926C57.4554 79.3298 58.3334 77.2101 58.3334 75V58.0375L75.0001 58.3333C77.2102 58.3333 79.3298 57.4554 80.8926 55.8926C82.4554 54.3298 83.3334 52.2101 83.3334 50C83.3334 47.7899 82.4554 45.6703 80.8926 44.1074C79.3298 42.5446 77.2102 41.6667 75.0001 41.6667Z" fill="#699BF7"/>
</svg>
