<svg width="100" height="100" viewBox="0 0 100 100" fill="none" xmlns="http://www.w3.org/2000/svg">
<path d="M48.3904 2.80429L3.125 24.5988V35.9375H96.875V24.5387L48.3904 2.80429ZM90.625 29.6875H9.375V28.5262L48.4846 9.6957L90.625 28.5863V29.6875ZM9.375 79.6875H90.625V85.9375H9.375V79.6875ZM3.125 90.625H96.875V96.875H3.125V90.625ZM10.9375 42.1875H17.1875V73.4375H10.9375V42.1875ZM82.8125 42.1875H89.0625V73.4375H82.8125V42.1875ZM64.0625 42.1875H70.3125V73.4375H64.0625V42.1875ZM29.6875 42.1875H35.9375V73.4375H29.6875V42.1875ZM46.875 42.1875H53.125V73.4375H46.875V42.1875Z" fill="#699BF7"/>
</svg>
