<svg width="100" height="100" viewBox="0 0 100 100" fill="none" xmlns="http://www.w3.org/2000/svg">
<path d="M7.14296 32.1429C6.19576 32.1429 5.28735 31.7666 4.61758 31.0968C3.94781 30.427 3.57153 29.5186 3.57153 28.5714V7.14287C3.57153 6.19567 3.94781 5.28726 4.61758 4.61749C5.28735 3.94772 6.19576 3.57144 7.14296 3.57144H92.8572C93.8044 3.57144 94.7129 3.94772 95.3826 4.61749C96.0524 5.28726 96.4287 6.19567 96.4287 7.14287V28.5714C96.4287 29.5186 96.0524 30.427 95.3826 31.0968C94.7129 31.7666 93.8044 32.1429 92.8572 32.1429" stroke="#699BF7" stroke-width="7.14286" stroke-linecap="round" stroke-linejoin="round"/>
<path d="M71.4286 21.4286H28.5714C26.599 21.4286 25 23.0276 25 25V75C25 76.9725 26.599 78.5714 28.5714 78.5714H71.4286C73.401 78.5714 75 76.9725 75 75V25C75 23.0276 73.401 21.4286 71.4286 21.4286Z" stroke="#699BF7" stroke-width="7.14286" stroke-linecap="round" stroke-linejoin="round"/>
<path d="M50.0002 60.7143C55.9175 60.7143 60.7145 55.9174 60.7145 50C60.7145 44.0827 55.9175 39.2857 50.0002 39.2857C44.0828 39.2857 39.2859 44.0827 39.2859 50C39.2859 55.9174 44.0828 60.7143 50.0002 60.7143Z" stroke="#699BF7" stroke-width="7.14286" stroke-linecap="round" stroke-linejoin="round"/>
<path d="M25 96.4286H75" stroke="#699BF7" stroke-width="7.14286" stroke-linecap="round" stroke-linejoin="round"/>
</svg>
