<svg width="100" height="100" viewBox="0 0 100 100" fill="none" xmlns="http://www.w3.org/2000/svg">
<g clip-path="url(#clip0_226_18)">
<path d="M28.0001 69.3333C29.0609 69.0239 30.2013 69.1486 31.1702 69.6799C32.1392 70.2113 32.8573 71.1058 33.1667 72.1667C33.4762 73.2275 33.3515 74.3679 32.8201 75.3368C32.2888 76.3057 31.3943 77.0239 30.3334 77.3333C28.2501 77.9417 26.7501 78.5833 25.7876 79.1667C26.7792 79.7625 28.3459 80.4292 30.5209 81.05C35.3334 82.425 42.2209 83.3333 50.0001 83.3333C57.7792 83.3333 64.6667 82.425 69.4792 81.05C71.6584 80.4292 73.2209 79.7625 74.2126 79.1667C73.2542 78.5833 71.7542 77.9417 69.6709 77.3333C68.6267 77.0103 67.7513 76.2899 67.2333 75.3274C66.7154 74.3649 66.5963 73.2375 66.9019 72.1881C67.2074 71.1386 67.913 70.2513 68.8667 69.7173C69.8204 69.1833 70.9457 69.0454 72.0001 69.3333C74.7834 70.1458 77.3334 71.1875 79.2917 72.525C81.1042 73.7708 83.3334 75.9417 83.3334 79.1667C83.3334 82.4292 81.0501 84.6167 79.2084 85.8625C77.2167 87.2042 74.6126 88.25 71.7667 89.0625C66.0251 90.7083 58.3334 91.6667 50.0001 91.6667C41.6667 91.6667 33.9751 90.7083 28.2334 89.0625C25.3876 88.25 22.7834 87.2042 20.7917 85.8625C18.9501 84.6125 16.6667 82.4292 16.6667 79.1667C16.6667 75.9417 18.8959 73.7708 20.7084 72.525C22.6667 71.1875 25.2167 70.1458 28.0001 69.3333ZM50.0001 8.33333C58.2881 8.33333 66.2367 11.6257 72.0972 17.4862C77.9577 23.3468 81.2501 31.2953 81.2501 39.5833C81.2501 50.2833 75.4167 58.9833 69.3751 65.1667C66.9734 67.5997 64.3925 69.849 61.6542 71.8958C59.1792 73.7542 53.5209 77.2375 53.5209 77.2375C52.4477 77.8475 51.2345 78.1682 50.0001 78.1682C48.7657 78.1682 47.5524 77.8475 46.4792 77.2375C43.6699 75.6111 40.9545 73.8278 38.3459 71.8958C35.6065 69.8504 33.0255 67.601 30.6251 65.1667C24.5834 58.9833 18.7501 50.2833 18.7501 39.5833C18.7501 31.2953 22.0425 23.3468 27.903 17.4862C33.7635 11.6257 41.7121 8.33333 50.0001 8.33333ZM50.0001 16.6667C43.9222 16.6667 38.0933 19.0811 33.7955 23.3788C29.4978 27.6765 27.0834 33.5054 27.0834 39.5833C27.0834 47.15 31.2334 53.8667 36.5834 59.3333C40.6084 63.45 45.0417 66.5833 48.1126 68.5083L50.0001 69.65L51.8876 68.5083C54.9542 66.5833 59.3917 63.45 63.4167 59.3375C68.7667 53.8667 72.9167 47.15 72.9167 39.5833C72.9167 33.5054 70.5023 27.6765 66.2046 23.3788C61.9069 19.0811 56.078 16.6667 50.0001 16.6667ZM50.0001 27.0833C51.6416 27.0833 53.2671 27.4067 54.7836 28.0348C56.3002 28.663 57.6782 29.5838 58.8389 30.7445C59.9996 31.9052 60.9204 33.2832 61.5486 34.7998C62.1768 36.3164 62.5001 37.9418 62.5001 39.5833C62.5001 41.2249 62.1768 42.8503 61.5486 44.3669C60.9204 45.8834 59.9996 47.2614 58.8389 48.4222C57.6782 49.5829 56.3002 50.5036 54.7836 51.1318C53.2671 51.76 51.6416 52.0833 50.0001 52.0833C46.6849 52.0833 43.5054 50.7664 41.1612 48.4222C38.817 46.078 37.5001 42.8985 37.5001 39.5833C37.5001 36.2681 38.817 33.0887 41.1612 30.7445C43.5054 28.4003 46.6849 27.0833 50.0001 27.0833ZM50.0001 35.4167C48.895 35.4167 47.8352 35.8556 47.0538 36.637C46.2724 37.4185 45.8334 38.4783 45.8334 39.5833C45.8334 40.6884 46.2724 41.7482 47.0538 42.5296C47.8352 43.311 48.895 43.75 50.0001 43.75C51.1051 43.75 52.165 43.311 52.9464 42.5296C53.7278 41.7482 54.1667 40.6884 54.1667 39.5833C54.1667 38.4783 53.7278 37.4185 52.9464 36.637C52.165 35.8556 51.1051 35.4167 50.0001 35.4167Z" fill="#699BF7"/>
</g>
<defs>
<clipPath id="clip0_226_18">
<rect width="100" height="100" fill="white"/>
</clipPath>
</defs>
</svg>
