<svg width="66" height="82" viewBox="0 0 66 82" fill="none" xmlns="http://www.w3.org/2000/svg">
<path d="M33 3.5L34.2292 0.624995C33.8407 0.458797 33.4226 0.373108 33 0.373108C32.5775 0.373108 32.1594 0.458797 31.7709 0.624995L33 3.5ZM33 78.5L31.45 81.2125C31.9221 81.4821 32.4564 81.624 33 81.624C33.5437 81.624 34.078 81.4821 34.55 81.2125L33 78.5ZM16.4334 69.0292L14.8792 71.7458L16.4292 69.0292H16.4334ZM31.7667 0.629163L5.13337 12.0417L7.58337 17.7917L34.225 6.375L31.7709 0.624995L31.7667 0.629163ZM0.708374 18.7458V47.3292H6.95837V18.7458H0.708374ZM14.8792 71.7458L31.45 81.2125L34.55 75.7875L17.9792 66.3167L14.8792 71.7458ZM34.55 81.2125L51.1209 71.7458L48.0209 66.3167L31.45 75.7875L34.55 81.2125ZM65.2917 47.325V18.75H59.0417V47.3333H65.2917V47.325ZM60.875 12.0458L34.2292 0.629163L31.7709 6.37083L58.4125 17.7917L60.8709 12.0458H60.875ZM65.2917 18.75C65.2917 15.8333 63.5542 13.1958 60.875 12.0458L58.4125 17.7917C58.5997 17.8724 58.759 18.0062 58.8708 18.1765C58.9826 18.3468 59.0421 18.5462 59.0417 18.75H65.2917ZM51.1209 71.7458C55.4254 69.2861 59.0032 65.7322 61.4917 61.4443C63.9803 57.1564 65.2913 52.2869 65.2917 47.3292H59.0417C59.0409 51.1845 58.0211 54.9712 56.0858 58.3056C54.1504 61.64 51.3682 64.4037 48.0209 66.3167L51.1209 71.7458ZM0.708374 47.3292C0.708819 52.2869 2.01975 57.1564 4.50834 61.4443C6.99692 65.7322 10.5747 69.2861 14.8792 71.7458L17.9792 66.3167C14.6313 64.4033 11.8487 61.639 9.91327 58.3038C7.97786 54.9686 6.95846 51.1811 6.95837 47.325H0.708374V47.3292ZM5.12504 12.0417C3.81423 12.6041 2.69716 13.5385 1.91212 14.7294C1.12708 15.9203 0.708561 17.3195 0.708374 18.7458H6.95837C6.95837 18.3292 7.20837 17.95 7.59171 17.7833L5.12504 12.05V12.0417Z" fill="white"/>
<path d="M24.6667 32.6667L41.3334 49.3333M24.6667 49.3333L41.3334 32.6667" stroke="white" stroke-width="6.25" stroke-linecap="round" stroke-linejoin="round"/>
</svg>
