<svg width="100" height="100" viewBox="0 0 100 100" fill="none" xmlns="http://www.w3.org/2000/svg">
<g clip-path="url(#clip0_225_28)">
<path d="M83.3334 58.3333C84.3954 58.3345 85.4168 58.7412 86.1891 59.4702C86.9613 60.1992 87.426 61.1956 87.4882 62.2558C87.5505 63.316 87.2055 64.3599 86.5239 65.1743C85.8423 65.9887 84.8754 66.5121 83.8209 66.6375L83.3334 66.6667H26.725L36.2792 76.2208C37.0265 76.9706 37.4603 77.9768 37.4926 79.0349C37.525 80.093 37.1533 81.1238 36.4532 81.9178C35.753 82.7118 34.7769 83.2096 33.723 83.31C32.6692 83.4104 31.6167 83.1059 30.7792 82.4583L30.3875 82.1125L14.4292 66.1542C11.6584 63.3875 13.4334 58.725 17.1917 58.3583L17.6709 58.3333H83.3334ZM63.7209 17.8875C64.4383 17.1701 65.3929 16.7391 66.4055 16.6755C67.4181 16.6118 68.4192 16.9198 69.2209 17.5417L69.6125 17.8875L85.5709 33.8458C88.3417 36.6125 86.5667 41.275 82.8084 41.6417L82.3292 41.6667H16.6667C15.6047 41.6655 14.5832 41.2588 13.811 40.5298C13.0388 39.8008 12.574 38.8044 12.5118 37.7442C12.4496 36.684 12.7945 35.6401 13.4761 34.8257C14.1578 34.0113 15.1246 33.4879 16.1792 33.3625L16.6667 33.3333H73.275L63.7209 23.7792C62.9397 22.9978 62.5009 21.9382 62.5009 20.8333C62.5009 19.7285 62.9397 18.6689 63.7209 17.8875Z" fill="#699BF7"/>
</g>
<defs>
<clipPath id="clip0_225_28">
<rect width="100" height="100" fill="white"/>
</clipPath>
</defs>
</svg>
