<svg width="100" height="100" viewBox="0 0 100 100" fill="none" xmlns="http://www.w3.org/2000/svg">
<path d="M43.1625 4.15001C45.1017 2.59656 47.5122 1.75009 49.9969 1.75009C52.4815 1.75009 54.8921 2.59656 56.8313 4.15001L89.6438 30.4C92.2375 32.475 93.75 35.6188 93.75 38.9438V82.8125C93.75 85.7133 92.5977 88.4953 90.5465 90.5465C88.4953 92.5977 85.7133 93.75 82.8125 93.75H60.9375C59.6943 93.75 58.502 93.2562 57.6229 92.3771C56.7439 91.498 56.25 90.3057 56.25 89.0625V56.25H43.75V89.0625C43.75 90.3057 43.2561 91.498 42.3771 92.3771C41.498 93.2562 40.3057 93.75 39.0625 93.75H17.1875C14.2867 93.75 11.5047 92.5977 9.45352 90.5465C7.40234 88.4953 6.25 85.7133 6.25 82.8125V38.9375C6.25 35.6188 7.7625 32.475 10.3562 30.4L43.1625 4.15001ZM50.975 11.4688C50.6981 11.2477 50.3543 11.1272 50 11.1272C49.6457 11.1272 49.3019 11.2477 49.025 11.4688L16.2125 37.7188C16.0287 37.8656 15.8804 38.052 15.7786 38.2641C15.6769 38.4762 15.6244 38.7085 15.625 38.9438V82.8125C15.625 83.675 16.325 84.375 17.1875 84.375H34.375V51.5625C34.375 50.3193 34.8689 49.127 35.7479 48.2479C36.627 47.3689 37.8193 46.875 39.0625 46.875H60.9375C62.1807 46.875 63.373 47.3689 64.2521 48.2479C65.1311 49.127 65.625 50.3193 65.625 51.5625V84.375H82.8125C83.2269 84.375 83.6243 84.2104 83.9174 83.9174C84.2104 83.6243 84.375 83.2269 84.375 82.8125V38.9375C84.3747 38.7033 84.3217 38.4722 84.22 38.2613C84.1183 38.0503 83.9705 37.8649 83.7875 37.7188L50.975 11.4688Z" fill="#699BF7"/>
</svg>
