<svg width="100" height="100" viewBox="0 0 100 100" fill="none" xmlns="http://www.w3.org/2000/svg">
<path d="M69.9582 95.8333C68.2082 95.125 66.9582 93.5417 66.6666 91.6667C66.4582 90.5833 66.6666 89.8333 68.3332 86.8333C74.5832 75.5833 77.7916 62.875 77.6249 50C77.7916 37.5 74.7499 25.2917 68.7499 14.3333C67.8749 12.5 67.0832 10.75 66.4166 8.87501C66.6666 7.29168 67.4582 5.83334 68.7499 4.95834C70.6249 3.95834 72.9166 4.16668 74.6249 5.33334C75.7916 6.83334 76.7916 8.33334 77.6249 10.0833C82.108 18.6704 85.1619 27.9307 86.6666 37.5C87.6249 45.0417 87.7499 52.7083 87.0416 60.2917C85.7499 70.0417 82.8749 79.4583 78.4582 88.25C75.7916 93.5833 74.2916 95.8333 72.7082 95.8333H69.9582ZM51.7916 86.625C49.4166 85.9583 47.9166 83.5417 48.4166 81.125C48.4166 80.625 49.7082 78.3333 50.8749 76C55.7916 66.5417 57.9166 55.875 56.9582 45.25C56.3749 37.625 54.1666 30.2083 50.5416 23.5C47.9166 18.25 47.7499 17.4167 49.2916 15.1667C51.1249 13.125 54.1666 12.8333 56.4166 14.5833C59.4166 19 61.7916 23.8333 63.5416 28.9167C68.8749 44.7083 68.0416 61.9167 61.2082 77.0833C57.7082 84.9583 55.2499 87.5 51.7916 86.4167V86.625ZM33.0416 77.3333C32.2997 77.0004 31.6415 76.5058 31.1153 75.8858C30.589 75.2659 30.2079 74.5362 29.9999 73.75C29.9999 72.9167 29.9999 71.8333 31.8749 68.5C34.9294 62.9622 36.5313 56.741 36.5313 50.4167C36.5313 44.0924 34.9294 37.8711 31.8749 32.3333C29.1666 27.0833 29.1666 26 31.3749 24C32.1666 23.0833 33.3332 22.625 34.5832 22.7917C37.2499 22.7917 38.7499 24.0833 40.9999 28.7917C44.5426 35.2963 46.3776 42.5933 46.3332 50C46.4999 57.5417 44.6666 65.0417 41.0416 71.6667C38.7916 76.0417 37.6666 77.0833 35.4166 77.4583C34.6249 77.5417 33.7916 77.4583 33.0416 77.0833V77.3333ZM15.4999 68.4583C14.1249 67.7917 13.0416 66.6667 12.4999 65.2083C12.0832 63.75 12.4999 62.5 14.1666 59.8333C16.2499 57 17.2499 53.5 17.0416 50C17.3332 46.4583 16.3749 42.9583 14.3332 40.0417C13.6416 38.9912 13.0289 37.891 12.4999 36.75C12.0416 34.125 13.7916 31.625 16.6666 31.125C18.9166 30.7083 20.4999 31.6667 22.5832 34.8333C25.5392 39.3316 27.1143 44.5966 27.1143 49.9792C27.1143 55.3618 25.5392 60.6267 22.5832 65.125C20.4582 68.3333 18.0416 69.2917 15.5416 68.4583H15.4999Z" fill="#699BF7"/>
</svg>
