<svg width="100" height="100" viewBox="0 0 100 100" fill="none" xmlns="http://www.w3.org/2000/svg">
<path fill-rule="evenodd" clip-rule="evenodd" d="M16.6667 12.5C15.5616 12.5 14.5018 12.939 13.7204 13.7204C12.939 14.5018 12.5 15.5616 12.5 16.6667V41.6667C12.5 42.7717 12.939 43.8315 13.7204 44.6129C14.5018 45.3943 15.5616 45.8333 16.6667 45.8333H41.6667C42.7717 45.8333 43.8315 45.3943 44.6129 44.6129C45.3943 43.8315 45.8333 42.7717 45.8333 41.6667V16.6667C45.8333 15.5616 45.3943 14.5018 44.6129 13.7204C43.8315 12.939 42.7717 12.5 41.6667 12.5H16.6667ZM20.8333 37.5V20.8333H37.5V37.5H20.8333ZM58.3333 12.5C57.2283 12.5 56.1685 12.939 55.3871 13.7204C54.6057 14.5018 54.1667 15.5616 54.1667 16.6667V41.6667C54.1667 42.7717 54.6057 43.8315 55.3871 44.6129C56.1685 45.3943 57.2283 45.8333 58.3333 45.8333H83.3333C84.4384 45.8333 85.4982 45.3943 86.2796 44.6129C87.061 43.8315 87.5 42.7717 87.5 41.6667V16.6667C87.5 15.5616 87.061 14.5018 86.2796 13.7204C85.4982 12.939 84.4384 12.5 83.3333 12.5H58.3333ZM16.6667 54.1667C15.5616 54.1667 14.5018 54.6057 13.7204 55.3871C12.939 56.1685 12.5 57.2283 12.5 58.3333V83.3333C12.5 84.4384 12.939 85.4982 13.7204 86.2796C14.5018 87.061 15.5616 87.5 16.6667 87.5H41.6667C42.7717 87.5 43.8315 87.061 44.6129 86.2796C45.3943 85.4982 45.8333 84.4384 45.8333 83.3333V58.3333C45.8333 57.2283 45.3943 56.1685 44.6129 55.3871C43.8315 54.6057 42.7717 54.1667 41.6667 54.1667H16.6667ZM58.3333 54.1667C57.2283 54.1667 56.1685 54.6057 55.3871 55.3871C54.6057 56.1685 54.1667 57.2283 54.1667 58.3333V62.5C54.1667 63.6051 54.6057 64.6649 55.3871 65.4463C56.1685 66.2277 57.2283 66.6667 58.3333 66.6667H62.5C63.6051 66.6667 64.6649 66.2277 65.4463 65.4463C66.2277 64.6649 66.6667 63.6051 66.6667 62.5V58.3333C66.6667 57.2283 66.2277 56.1685 65.4463 55.3871C64.6649 54.6057 63.6051 54.1667 62.5 54.1667H58.3333ZM79.1667 54.1667C78.0617 54.1669 77.002 54.606 76.2208 55.3875L67.8875 63.7208C67.1285 64.5067 66.7085 65.5592 66.718 66.6517C66.7275 67.7442 67.1657 68.7892 67.9383 69.5617C68.7108 70.3343 69.7558 70.7725 70.8483 70.782C71.9408 70.7915 72.9933 70.3715 73.7792 69.6125L80.8917 62.5H83.3333C84.4384 62.5 85.4982 62.061 86.2796 61.2796C87.061 60.4982 87.5 59.4384 87.5 58.3333C87.5 57.2283 87.061 56.1685 86.2796 55.3871C85.4982 54.6057 84.4384 54.1667 83.3333 54.1667H79.1667ZM58.3333 70.8333C57.2283 70.8333 56.1685 71.2723 55.3871 72.0537C54.6057 72.8351 54.1667 73.8949 54.1667 75V83.3333C54.1667 84.4384 54.6057 85.4982 55.3871 86.2796C56.1685 87.061 57.2283 87.5 58.3333 87.5C59.4384 87.5 60.4982 87.061 61.2796 86.2796C62.061 85.4982 62.5 84.4384 62.5 83.3333V79.1667H66.6667C67.7717 79.1667 68.8315 78.7277 69.6129 77.9463C70.3943 77.1649 70.8333 76.1051 70.8333 75C70.8333 73.8949 70.3943 72.8351 69.6129 72.0537C68.8315 71.2723 67.7717 70.8333 66.6667 70.8333H58.3333ZM87.5 75C87.5 73.8949 87.061 72.8351 86.2796 72.0537C85.4982 71.2723 84.4384 70.8333 83.3333 70.8333C82.2283 70.8333 81.1685 71.2723 80.387 72.0537C79.6056 72.8351 79.1667 73.8949 79.1667 75V79.1667H75C73.8949 79.1667 72.8351 79.6056 72.0537 80.387C71.2723 81.1685 70.8333 82.2283 70.8333 83.3333C70.8333 84.4384 71.2723 85.4982 72.0537 86.2796C72.8351 87.061 73.8949 87.5 75 87.5H83.3333C84.4384 87.5 85.4982 87.061 86.2796 86.2796C87.061 85.4982 87.5 84.4384 87.5 83.3333V75ZM66.6667 29.1667C66.6667 28.0616 67.1056 27.0018 67.887 26.2204C68.6685 25.439 69.7283 25 70.8333 25C71.9384 25 73.0024 25.439 73.7838 26.2204C74.5652 27.0018 75.0042 28.0616 75.0042 29.1667C75.0042 30.2717 74.5652 31.3315 73.7838 32.1129C73.0024 32.8943 71.9426 33.3333 70.8375 33.3333C69.7324 33.3333 68.6685 32.8943 67.887 32.1129C67.1056 31.3315 66.6667 30.2717 66.6667 29.1667ZM29.1667 66.6667C28.0616 66.6667 27.0018 67.1056 26.2204 67.887C25.439 68.6685 25 69.7283 25 70.8333C25 71.9384 25.439 72.9982 26.2204 73.7796C27.0018 74.561 28.0616 75 29.1667 75C30.2717 75 31.3357 74.561 32.1171 73.7796C32.8985 72.9982 33.3375 71.9384 33.3375 70.8333C33.3375 69.7283 32.8985 68.6685 32.1171 67.887C31.3357 67.1056 30.2717 66.6667 29.1667 66.6667Z" fill="#699BF7"/>
</svg>
