<svg width="100" height="100" viewBox="0 0 100 100" fill="none" xmlns="http://www.w3.org/2000/svg">
<path d="M80.9583 54.0833C81.1249 52.75 81.2499 51.4167 81.2499 50C81.2499 48.5833 81.1249 47.25 80.9583 45.9167L89.7499 39.0417C90.5416 38.4167 90.7499 37.2917 90.2499 36.375L81.9166 21.9583C81.671 21.5284 81.2803 21.2001 80.8145 21.0321C80.3488 20.8641 79.8384 20.8675 79.3749 21.0417L68.9999 25.2083C66.8333 23.5417 64.4999 22.1667 61.9583 21.125L60.3749 10.0833C60.306 9.59308 60.0606 9.14483 59.6847 8.82264C59.3088 8.50046 58.8283 8.32647 58.3333 8.33332H41.6666C40.6249 8.33332 39.7499 9.08333 39.6249 10.0833L38.0416 21.125C35.4999 22.1667 33.1666 23.5833 30.9999 25.2083L20.6249 21.0417C20.3833 20.9597 20.1301 20.9175 19.8749 20.9167C19.1666 20.9167 18.4583 21.2917 18.0833 21.9583L9.74994 36.375C9.20827 37.2917 9.45827 38.4167 10.2499 39.0417L19.0416 45.9167C18.8749 47.25 18.7499 48.625 18.7499 50C18.7499 51.375 18.8749 52.75 19.0416 54.0833L10.2499 60.9583C9.45827 61.5833 9.24994 62.7083 9.74994 63.625L18.0833 78.0417C18.3289 78.4716 18.7196 78.7999 19.1854 78.9679C19.6511 79.1359 20.1615 79.1325 20.6249 78.9583L30.9999 74.7917C33.1666 76.4583 35.4999 77.8333 38.0416 78.875L39.6249 89.9167C39.7499 90.9167 40.6249 91.6667 41.6666 91.6667H58.3333C59.3749 91.6667 60.2499 90.9167 60.3749 89.9167L61.9583 78.875C64.4999 77.8333 66.8333 76.4167 68.9999 74.7917L79.3749 78.9583C79.6249 79.0417 79.8749 79.0833 80.1249 79.0833C80.8333 79.0833 81.5416 78.7083 81.9166 78.0417L90.2499 63.625C90.7499 62.7083 90.5416 61.5833 89.7499 60.9583L80.9583 54.0833ZM72.7083 46.9583C72.8749 48.25 72.9166 49.125 72.9166 50C72.9166 50.875 72.8333 51.7917 72.7083 53.0417L72.1249 57.75L75.8333 60.6667L80.3333 64.1667L77.4166 69.2083L72.1249 67.0833L67.7916 65.3333L64.0416 68.1667C62.2499 69.5 60.5416 70.5 58.8333 71.2083L54.4166 73L53.7499 77.7083L52.9166 83.3333H47.0833L46.2916 77.7083L45.6249 73L41.2083 71.2083C39.4166 70.4583 37.7499 69.5 36.0833 68.25L32.2916 65.3333L27.8749 67.125L22.5833 69.25L19.6666 64.2083L24.1666 60.7083L27.8749 57.7917L27.2916 53.0833C27.1666 51.7917 27.0833 50.8333 27.0833 50C27.0833 49.1667 27.1666 48.2083 27.2916 46.9583L27.8749 42.25L24.1666 39.3333L19.6666 35.8333L22.5833 30.7917L27.8749 32.9167L32.2083 34.6667L35.9583 31.8333C37.7499 30.5 39.4583 29.5 41.1666 28.7917L45.5833 27L46.2499 22.2917L47.0833 16.6667H52.8749L53.6666 22.2917L54.3333 27L58.7499 28.7917C60.5416 29.5417 62.2083 30.5 63.8749 31.75L67.6666 34.6667L72.0833 32.875L77.3749 30.75L80.2916 35.7917L75.8333 39.3333L72.1249 42.25L72.7083 46.9583ZM49.9999 33.3333C40.7916 33.3333 33.3333 40.7917 33.3333 50C33.3333 59.2083 40.7916 66.6667 49.9999 66.6667C59.2083 66.6667 66.6666 59.2083 66.6666 50C66.6666 40.7917 59.2083 33.3333 49.9999 33.3333ZM49.9999 58.3333C45.4166 58.3333 41.6666 54.5833 41.6666 50C41.6666 45.4167 45.4166 41.6667 49.9999 41.6667C54.5833 41.6667 58.3333 45.4167 58.3333 50C58.3333 54.5833 54.5833 58.3333 49.9999 58.3333Z" fill="#ffff"/>
</svg>
