<svg width="100" height="100" viewBox="0 0 100 100" fill="none" xmlns="http://www.w3.org/2000/svg">
<path d="M19.7917 64.8375C21.5179 66.2177 23.7216 66.8557 25.9181 66.6111C28.1146 66.3665 30.124 65.2594 31.5042 63.5333L43.1251 49.0083L53.3334 56.6667C55.0662 57.9654 57.2366 58.5386 59.3847 58.2648C61.5328 57.9911 63.49 56.8918 64.8417 55.2L81.5084 34.3667C82.8892 32.6406 83.5277 30.4366 83.2835 28.2397C83.0394 26.0428 81.9324 24.0329 80.2063 22.6521C78.4802 21.2713 76.2763 20.6328 74.0794 20.877C71.8825 21.1212 69.8725 22.2281 68.4917 23.9542L56.8709 38.4792L46.6667 30.8333C44.9349 29.5337 42.7652 28.9591 40.6172 29.2313C38.4691 29.5035 36.5113 30.6011 35.1584 32.2917L18.4917 53.125C17.1122 54.8511 16.4742 57.0541 16.7179 59.2503C16.9617 61.4464 18.0672 63.456 19.7917 64.8375ZM20.8334 87.5H79.1667C80.2718 87.5 81.3316 87.061 82.113 86.2796C82.8944 85.4982 83.3334 84.4384 83.3334 83.3333C83.3334 82.2283 82.8944 81.1685 82.113 80.3871C81.3316 79.6057 80.2718 79.1667 79.1667 79.1667H20.8334C19.7283 79.1667 18.6685 79.6057 17.8871 80.3871C17.1057 81.1685 16.6667 82.2283 16.6667 83.3333C16.6667 84.4384 17.1057 85.4982 17.8871 86.2796C18.6685 87.061 19.7283 87.5 20.8334 87.5Z" fill="#699BF7"/>
</svg>
