<svg width="68" height="84" viewBox="0 0 68 84" fill="none" xmlns="http://www.w3.org/2000/svg">
<path d="M34 46.1667C32.7314 46.1518 31.4888 46.526 30.4393 47.2388C29.3898 47.9515 28.5839 48.9687 28.13 50.1534C27.6761 51.338 27.5961 52.6333 27.9006 53.8648C28.2051 55.0964 28.8796 56.2051 29.8333 57.0417V62.8333C29.8333 63.9384 30.2723 64.9982 31.0537 65.7796C31.8351 66.561 32.8949 67 34 67C35.105 67 36.1648 66.561 36.9462 65.7796C37.7276 64.9982 38.1666 63.9384 38.1666 62.8333V57.0417C39.1203 56.2051 39.7948 55.0964 40.0993 53.8648C40.4039 52.6333 40.3238 51.338 39.8699 50.1534C39.416 48.9687 38.6101 47.9515 37.5606 47.2388C36.5111 46.526 35.2685 46.1518 34 46.1667ZM54.8333 29.5V21.1667C54.8333 15.6413 52.6384 10.3423 48.7313 6.43529C44.8243 2.52828 39.5253 0.333344 34 0.333344C28.4746 0.333344 23.1756 2.52828 19.2686 6.43529C15.3616 10.3423 13.1666 15.6413 13.1666 21.1667V29.5C9.85142 29.5 6.672 30.817 4.32779 33.1612C1.98359 35.5054 0.666626 38.6848 0.666626 42V71.1667C0.666626 74.4819 1.98359 77.6613 4.32779 80.0055C6.672 82.3497 9.85142 83.6667 13.1666 83.6667H54.8333C58.1485 83.6667 61.3279 82.3497 63.6721 80.0055C66.0163 77.6613 67.3333 74.4819 67.3333 71.1667V42C67.3333 38.6848 66.0163 35.5054 63.6721 33.1612C61.3279 30.817 58.1485 29.5 54.8333 29.5ZM21.5 21.1667C21.5 17.8515 22.8169 14.672 25.1611 12.3278C27.5053 9.98364 30.6848 8.66668 34 8.66668C37.3152 8.66668 40.4946 9.98364 42.8388 12.3278C45.183 14.672 46.5 17.8515 46.5 21.1667V29.5H21.5V21.1667ZM59 71.1667C59 72.2717 58.561 73.3316 57.7796 74.113C56.9982 74.8944 55.9384 75.3333 54.8333 75.3333H13.1666C12.0616 75.3333 11.0017 74.8944 10.2203 74.113C9.43895 73.3316 8.99996 72.2717 8.99996 71.1667V42C8.99996 40.8949 9.43895 39.8351 10.2203 39.0537C11.0017 38.2723 12.0616 37.8333 13.1666 37.8333H54.8333C55.9384 37.8333 56.9982 38.2723 57.7796 39.0537C58.561 39.8351 59 40.8949 59 42V71.1667Z" fill="#699BF7"/>
</svg>
