<svg width="88" height="88" viewBox="0 0 88 88" fill="none" xmlns="http://www.w3.org/2000/svg">
<path d="M78.375 0.25C79.2038 0.25 79.9986 0.57924 80.5847 1.16529C81.1707 1.75134 81.5 2.5462 81.5 3.375V6.5H84.625C85.4538 6.5 86.2486 6.82924 86.8347 7.41529C87.4207 8.00134 87.75 8.7962 87.75 9.625C87.75 10.4538 87.4207 11.2487 86.8347 11.8347C86.2486 12.4208 85.4538 12.75 84.625 12.75H81.5V15.875C81.5 16.7038 81.1707 17.4987 80.5847 18.0847C79.9986 18.6708 79.2038 19 78.375 19C77.5462 19 76.7513 18.6708 76.1653 18.0847C75.5792 17.4987 75.25 16.7038 75.25 15.875V12.75H72.125C71.2962 12.75 70.5013 12.4208 69.9153 11.8347C69.3292 11.2487 69 10.4538 69 9.625C69 8.7962 69.3292 8.00134 69.9153 7.41529C70.5013 6.82924 71.2962 6.5 72.125 6.5H75.25V3.375C75.25 2.5462 75.5792 1.75134 76.1653 1.16529C76.7513 0.57924 77.5462 0.25 78.375 0.25ZM15.875 12.75C16.7038 12.75 17.4986 13.0792 18.0847 13.6653C18.6707 14.2513 19 15.0462 19 15.875V19H22.125C22.9538 19 23.7486 19.3292 24.3347 19.9153C24.9207 20.5013 25.25 21.2962 25.25 22.125C25.25 22.9538 24.9207 23.7487 24.3347 24.3347C23.7486 24.9208 22.9538 25.25 22.125 25.25H19V28.375C19 29.2038 18.6707 29.9987 18.0847 30.5847C17.4986 31.1708 16.7038 31.5 15.875 31.5C15.0462 31.5 14.2513 31.1708 13.6653 30.5847C13.0792 29.9987 12.75 29.2038 12.75 28.375V25.25H9.62497C8.79617 25.25 8.00131 24.9208 7.41526 24.3347C6.82921 23.7487 6.49997 22.9538 6.49997 22.125C6.49997 21.2962 6.82921 20.5013 7.41526 19.9153C8.00131 19.3292 8.79617 19 9.62497 19H12.75V15.875C12.75 15.0462 13.0792 14.2513 13.6653 13.6653C14.2513 13.0792 15.0462 12.75 15.875 12.75ZM72.125 69C72.9538 69 73.7486 68.6708 74.3347 68.0847C74.9207 67.4987 75.25 66.7038 75.25 65.875C75.25 65.0462 74.9207 64.2513 74.3347 63.6653C73.7486 63.0792 72.9538 62.75 72.125 62.75H69V59.625C69 58.7962 68.6707 58.0013 68.0847 57.4153C67.4986 56.8292 66.7038 56.5 65.875 56.5C65.0462 56.5 64.2513 56.8292 63.6653 57.4153C63.0792 58.0013 62.75 58.7962 62.75 59.625V62.75H59.625C58.7962 62.75 58.0013 63.0792 57.4153 63.6653C56.8292 64.2513 56.5 65.0462 56.5 65.875C56.5 66.7038 56.8292 67.4987 57.4153 68.0847C58.0013 68.6708 58.7962 69 59.625 69H62.75V72.125C62.75 72.9538 63.0792 73.7487 63.6653 74.3347C64.2513 74.9208 65.0462 75.25 65.875 75.25C66.7038 75.25 67.4986 74.9208 68.0847 74.3347C68.6707 73.7487 69 72.9538 69 72.125V69H72.125ZM48.5625 22.5188C50.8069 20.2752 53.8506 19.0151 57.0241 19.0157C60.1975 19.0163 63.2408 20.2775 65.4843 22.5219C67.7279 24.7663 68.988 27.81 68.9874 30.9835C68.9868 34.1569 67.7256 37.2002 65.4812 39.4437L20.6687 84.2562C18.4243 86.4998 15.3806 87.7599 12.2071 87.7593C9.03367 87.7587 5.99041 86.4975 3.74685 84.2531C1.50328 82.0087 0.243189 78.965 0.243775 75.7915C0.244361 72.6181 1.50558 69.5748 3.74997 67.3312L48.5625 22.5188ZM45.5625 34.3562L8.16872 71.75C7.09708 72.8216 6.49504 74.2751 6.49504 75.7906C6.49504 77.3062 7.09708 78.7596 8.16872 79.8312C9.24036 80.9029 10.6938 81.5049 12.2093 81.5049C13.7249 81.5049 15.1783 80.9029 16.25 79.8312L53.6437 42.4375L45.5625 34.3562ZM58.0625 38.0188L61.0625 35.0188C61.6031 34.4904 62.0334 33.8601 62.3286 33.1642C62.6238 32.4684 62.778 31.7208 62.7822 30.965C62.7864 30.2091 62.6405 29.4599 62.3531 28.7608C62.0656 28.0617 61.6423 27.4266 61.1076 26.8924C60.5729 26.3581 59.9375 25.9352 59.2381 25.6483C58.5388 25.3614 57.7895 25.2161 57.0337 25.2209C56.2778 25.2257 55.5304 25.3804 54.8348 25.6762C54.1391 25.9719 53.5091 26.4027 52.9812 26.9437L49.9812 29.9437L58.0625 38.0188Z" fill="#699BF7"/>
</svg>
